<svg width="1440" height="2974" viewBox="0 0 1440 2974" fill="none" xmlns="http://www.w3.org/2000/svg">
<g clip-path="url(#clip0_542_333)">
<rect width="1440" height="2974" fill="black"/>
<g filter="url(#filter0_f_542_333)">
<path d="M628.5 472.952C628.5 590.588 472.137 507.952 354.5 507.952C236.863 507.952 107 544.088 107 426.452C107 308.815 202.363 213.452 320 213.452C437.637 213.452 628.5 355.315 628.5 472.952Z" fill="#6E3CFF"/>
</g>
<g filter="url(#filter1_f_542_333)">
<path d="M1356.5 905.5C1356.5 1023.14 1200.14 940.5 1082.5 940.5C964.863 940.5 835 976.637 835 859C835 741.363 930.363 646 1048 646C1165.64 646 1356.5 787.863 1356.5 905.5Z" fill="#6E3CFF"/>
</g>
<g filter="url(#filter2_f_542_333)">
<path d="M1217.5 2581C1217.5 2698.64 1061.14 2616 943.5 2616C825.863 2616 696 2652.14 696 2534.5C696 2416.86 791.363 2321.5 909 2321.5C1026.64 2321.5 1217.5 2463.36 1217.5 2581Z" fill="#6E3CFF"/>
</g>
<g filter="url(#filter3_f_542_333)">
<path d="M1718.5 42.5C1718.5 160.137 1562.14 77.5 1444.5 77.5C1326.86 77.5 1197 113.637 1197 -4C1197 -121.637 1292.36 -217 1410 -217C1527.64 -217 1718.5 -75.1367 1718.5 42.5Z" fill="#74A4FF" fill-opacity="0.74"/>
</g>
<g style="mix-blend-mode:plus-lighter" filter="url(#filter4_b_542_333)">
<path d="M263.301 770.101C4.02349 552.369 398.449 452.524 558.16 262.338C717.872 72.1519 814.536 -204.686 1073.81 13.0463C1333.09 230.779 1413.81 561.462 1254.09 751.648C1094.38 941.834 522.579 987.833 263.301 770.101Z" fill="#74A4FF" fill-opacity="0.05"/>
</g>
<path fill-rule="evenodd" clip-rule="evenodd" d="M1258.19 2275.23C1259.36 2238.69 1251.02 2205.22 1236.57 2177.12C1264.47 2176.36 1294.42 2182.24 1324.18 2192.34C1394.15 2216.08 1462.33 2262.92 1498.42 2300.18L1500.58 2298.09C1464.17 2260.51 1395.58 2213.39 1325.15 2189.5C1294.73 2179.18 1263.85 2173.15 1235.02 2174.17C1213.98 2135 1180.97 2106.73 1145.56 2095.88C1109.56 2084.85 1071.12 2091.86 1040.51 2123.69C1012.75 2152.56 991.565 2201.71 984.269 2275.98C985.309 2275.61 986.351 2275.24 987.393 2274.88C994.777 2201.79 1015.72 2153.81 1042.67 2125.77C1072.45 2094.81 1109.69 2088.02 1144.69 2098.75C1178.88 2109.23 1210.97 2136.46 1231.68 2174.32C1195.15 2176.31 1162.11 2189.9 1137.82 2220.77C1129.68 2231.12 1123.47 2241.32 1118.95 2251.28C1120.05 2251.26 1121.16 2251.25 1122.26 2251.24C1126.63 2241.92 1132.53 2232.35 1140.18 2222.63C1164.1 2192.23 1196.82 2178.93 1233.25 2177.24C1247.74 2204.88 1256.22 2237.94 1255.22 2274.13C1256.21 2274.49 1257.2 2274.86 1258.19 2275.23Z" fill="white"/>
<g style="mix-blend-mode:plus-lighter" filter="url(#filter5_b_542_333)">
<path d="M1539.86 3080.12C1411 3293.76 1245.57 2989.32 1053.02 2873.18C860.46 2757.05 608.309 2694.47 737.16 2480.83C866.011 2267.19 1126.56 2188.15 1319.12 2304.28C1511.67 2420.41 1668.71 2866.48 1539.86 3080.12Z" fill="#74A4FF" fill-opacity="0.05"/>
</g>
<g style="mix-blend-mode:plus-lighter" opacity="0.5" filter="url(#filter6_b_542_333)">
<path d="M1539.86 3080.12C1411 3293.76 1245.57 2989.32 1053.02 2873.18C860.46 2757.05 608.309 2694.47 737.16 2480.83C866.011 2267.19 1126.56 2188.15 1319.12 2304.28C1511.67 2420.41 1668.71 2866.48 1539.86 3080.12Z" fill="#74A4FF" fill-opacity="0.05"/>
</g>
<path fill-rule="evenodd" clip-rule="evenodd" d="M993.694 2840.13C965.258 2857.8 929.692 2885.91 912.162 2915.09C903.081 2930.2 898.704 2945.84 902.976 2960.53C907.255 2975.24 920.077 2988.58 944.39 2999.37L945.608 2996.63C921.721 2986.02 909.792 2973.23 905.857 2959.69C901.915 2946.14 905.862 2931.4 914.733 2916.63C932.194 2887.57 968.205 2859.3 996.745 2841.77C995.728 2841.23 994.711 2840.68 993.694 2840.13Z" fill="white"/>
<path d="M1499.5 2299.13C1427 2224.3 1225.94 2111.21 1139 2221.7C1043 2343.7 1219.24 2444.39 1250 2322.2C1302.94 2111.88 1030.64 1964.8 988.447 2254" stroke="white" stroke-width="3"/>
<g style="mix-blend-mode:plus-lighter" filter="url(#filter7_b_542_333)">
<path d="M246.624 143.948C69.3385 437.897 -141.45 29.1636 -393.726 -122.989C-646.002 -275.141 -978.958 -352.809 -801.673 -646.758C-624.387 -940.707 -276.158 -1055.66 -23.8819 -903.504C228.394 -751.352 423.91 -150.001 246.624 143.948Z" fill="#74A4FF" fill-opacity="0.05"/>
</g>
<path d="M1080.65 -60.5691C1156.38 -7.14227 1200.56 21.1494 1159.97 97.515C1072.39 262.332 748.194 434.158 926.685 499.305C1080.65 555.5 1333.24 272.508 1444 387C1488.5 433 1444 450 1424 433C1377.45 393.434 1417.5 269.5 1546.5 414" stroke="white" stroke-width="3"/>
<path d="M-10.9998 430.538C100.165 438 -171.271 628.159 122.5 677.971C237.5 697.471 228 562.999 152.5 570.999C57.7902 581.034 -12.9025 689.223 100.165 758C257.165 853.5 -99.9116 814.863 -10.9996 890" stroke="white" stroke-width="3"/>
<path d="M900 212.984C909 210.106 909.714 200.262 912 194C914.286 200.262 915 210.106 924 212.984C915.857 216.436 914.286 224.738 912 231C910.286 225.644 908.143 216.436 900 212.984Z" stroke="white" stroke-width="3"/>
<path d="M847 286.324C862.375 281.425 863.595 264.662 867.5 254C871.405 264.662 872.625 281.425 888 286.324C874.089 292.203 871.405 306.338 867.5 317C864.571 307.88 860.911 292.203 847 286.324Z" stroke="white" stroke-width="3"/>
<path d="M900 441.853C906.75 439.753 907.286 432.569 909 428C910.714 432.569 911.25 439.753 918 441.853C911.893 444.373 910.714 450.431 909 455C907.714 451.091 906.107 444.373 900 441.853Z" stroke="white" stroke-width="3"/>
<path d="M1287 613.853C1293.75 611.753 1294.29 604.569 1296 600C1297.71 604.569 1298.25 611.753 1305 613.853C1298.89 616.373 1297.71 622.431 1296 627C1294.71 623.091 1293.11 616.373 1287 613.853Z" stroke="white" stroke-width="3"/>
<path fill-rule="evenodd" clip-rule="evenodd" d="M1044.15 240H1039.86C1027.32 252.267 1014.66 264.381 1002.2 276.293L999.57 278.812C979.438 298.07 959.919 316.793 942.475 334.741C941.645 335.595 940.82 336.447 940 337.297V341.626C941.524 340.034 943.067 338.436 944.626 336.832C962.026 318.929 981.506 300.243 1001.64 280.98L1004.29 278.453C1017.46 265.854 1030.88 253.014 1044.15 240Z" fill="white"/>
</g>
<defs>
<filter id="filter0_f_542_333" x="-393" y="-286.548" width="1521.5" height="1322.7" filterUnits="userSpaceOnUse" color-interpolation-filters="sRGB">
<feFlood flood-opacity="0" result="BackgroundImageFix"/>
<feBlend mode="normal" in="SourceGraphic" in2="BackgroundImageFix" result="shape"/>
<feGaussianBlur stdDeviation="250" result="effect1_foregroundBlur_542_333"/>
</filter>
<filter id="filter1_f_542_333" x="335" y="146" width="1521.5" height="1322.7" filterUnits="userSpaceOnUse" color-interpolation-filters="sRGB">
<feFlood flood-opacity="0" result="BackgroundImageFix"/>
<feBlend mode="normal" in="SourceGraphic" in2="BackgroundImageFix" result="shape"/>
<feGaussianBlur stdDeviation="250" result="effect1_foregroundBlur_542_333"/>
</filter>
<filter id="filter2_f_542_333" x="196" y="1821.5" width="1521.5" height="1322.7" filterUnits="userSpaceOnUse" color-interpolation-filters="sRGB">
<feFlood flood-opacity="0" result="BackgroundImageFix"/>
<feBlend mode="normal" in="SourceGraphic" in2="BackgroundImageFix" result="shape"/>
<feGaussianBlur stdDeviation="250" result="effect1_foregroundBlur_542_333"/>
</filter>
<filter id="filter3_f_542_333" x="697" y="-717" width="1521.5" height="1322.7" filterUnits="userSpaceOnUse" color-interpolation-filters="sRGB">
<feFlood flood-opacity="0" result="BackgroundImageFix"/>
<feBlend mode="normal" in="SourceGraphic" in2="BackgroundImageFix" result="shape"/>
<feGaussianBlur stdDeviation="250" result="effect1_foregroundBlur_542_333"/>
</filter>
<filter id="filter4_b_542_333" x="162.281" y="-81.7017" width="1188.81" height="1011.49" filterUnits="userSpaceOnUse" color-interpolation-filters="sRGB">
<feFlood flood-opacity="0" result="BackgroundImageFix"/>
<feGaussianBlur in="BackgroundImageFix" stdDeviation="7.5"/>
<feComposite in2="SourceAlpha" operator="in" result="effect1_backgroundBlur_542_333"/>
<feBlend mode="normal" in="SourceGraphic" in2="effect1_backgroundBlur_542_333" result="shape"/>
</filter>
<filter id="filter5_b_542_333" x="686.955" y="2235.74" width="914.855" height="933.514" filterUnits="userSpaceOnUse" color-interpolation-filters="sRGB">
<feFlood flood-opacity="0" result="BackgroundImageFix"/>
<feGaussianBlur in="BackgroundImageFix" stdDeviation="7.5"/>
<feComposite in2="SourceAlpha" operator="in" result="effect1_backgroundBlur_542_333"/>
<feBlend mode="normal" in="SourceGraphic" in2="effect1_backgroundBlur_542_333" result="shape"/>
</filter>
<filter id="filter6_b_542_333" x="686.955" y="2235.74" width="914.855" height="933.514" filterUnits="userSpaceOnUse" color-interpolation-filters="sRGB">
<feFlood flood-opacity="0" result="BackgroundImageFix"/>
<feGaussianBlur in="BackgroundImageFix" stdDeviation="7.5"/>
<feComposite in2="SourceAlpha" operator="in" result="effect1_backgroundBlur_542_333"/>
<feBlend mode="normal" in="SourceGraphic" in2="effect1_backgroundBlur_542_333" result="shape"/>
</filter>
<filter id="filter7_b_542_333" x="-866.562" y="-985.703" width="1196.48" height="1248.36" filterUnits="userSpaceOnUse" color-interpolation-filters="sRGB">
<feFlood flood-opacity="0" result="BackgroundImageFix"/>
<feGaussianBlur in="BackgroundImageFix" stdDeviation="7.5"/>
<feComposite in2="SourceAlpha" operator="in" result="effect1_backgroundBlur_542_333"/>
<feBlend mode="normal" in="SourceGraphic" in2="effect1_backgroundBlur_542_333" result="shape"/>
</filter>
<clipPath id="clip0_542_333">
<rect width="1440" height="2974" fill="white"/>
</clipPath>
</defs>
</svg>
