<svg width="116" height="59" viewBox="0 0 116 59" fill="none" xmlns="http://www.w3.org/2000/svg">
<path d="M0 23.2H14.4V25.6H4.8L4.8 35.2H9.6L9.6 37.6H4.8L4.8 52H0L0 23.2ZM16.7813 23.2L31.1813 23.2V25.6L21.5813 25.6L21.5813 35.2H26.3813V37.6H21.5813V49.6H31.1813V52H16.7813L16.7813 23.2ZM49.1625 29.2L44.3625 29.2C44.3625 28.208 44.2505 27.36 44.0265 26.656C43.8025 25.952 43.5145 25.6 43.1625 25.6C42.8105 25.6 42.5225 25.952 42.2985 26.656C42.0745 27.36 41.9625 28.208 41.9625 29.2C41.9625 30.192 42.0745 31.04 42.2985 31.744C42.5225 32.448 42.8105 32.8 43.1625 32.8C44.4745 32.8 45.7065 33.056 46.8585 33.568C48.0425 34.08 49.0665 34.768 49.9305 35.632C50.7945 36.496 51.4825 37.52 51.9945 38.704C52.5065 39.856 52.7625 41.088 52.7625 42.4C52.7625 43.712 52.5065 44.96 51.9945 46.144C51.4825 47.296 50.7945 48.304 49.9305 49.168C49.0665 50.032 48.0425 50.72 46.8585 51.232C45.7065 51.744 44.4745 52 43.1625 52C41.8505 52 40.6025 51.744 39.4185 51.232C38.2665 50.72 37.2585 50.032 36.3945 49.168C35.5305 48.304 34.8425 47.296 34.3305 46.144C33.8185 44.96 33.5625 43.712 33.5625 42.4H38.3625C38.3625 43.392 38.4905 44.336 38.7465 45.232C39.0025 46.096 39.3385 46.848 39.7545 47.488C40.2025 48.128 40.7145 48.64 41.2905 49.024C41.8665 49.408 42.4905 49.6 43.1625 49.6C43.8345 49.6 44.4585 49.408 45.0345 49.024C45.6105 48.64 46.1065 48.128 46.5225 47.488C46.9705 46.848 47.3225 46.096 47.5785 45.232C47.8345 44.336 47.9625 43.392 47.9625 42.4C47.9625 41.408 47.8345 40.48 47.5785 39.616C47.3225 38.72 46.9705 37.952 46.5225 37.312C46.1065 36.672 45.6105 36.16 45.0345 35.776C44.4585 35.392 43.8345 35.2 43.1625 35.2C42.3305 35.2 41.5465 35.04 40.8105 34.72C40.1065 34.4 39.4825 33.968 38.9385 33.424C38.3945 32.88 37.9625 32.256 37.6425 31.552C37.3225 30.816 37.1625 30.032 37.1625 29.2C37.1625 28.368 37.3225 27.6 37.6425 26.896C37.9625 26.16 38.3945 25.52 38.9385 24.976C39.4825 24.432 40.1065 24 40.8105 23.68C41.5465 23.36 42.3305 23.2 43.1625 23.2C43.9945 23.2 44.7625 23.36 45.4665 23.68C46.2025 24 46.8425 24.432 47.3865 24.976C47.9305 25.52 48.3625 26.16 48.6825 26.896C49.0025 27.6 49.1625 28.368 49.1625 29.2ZM55.1719 23.2H74.3719V25.6H67.1719V52H62.3719L62.3719 25.6H55.1719V23.2Z" fill="white"/>
<path d="M80 18.1096C86.6635 15.971 87.1923 8.65385 88.8846 4C90.5769 8.65385 91.1058 15.971 97.7692 18.1096C91.7404 20.6758 90.5769 26.8462 88.8846 31.5C87.6154 27.519 86.0288 20.6758 80 18.1096Z" stroke="white" stroke-width="2.53846"/>
<path d="M102 31.7345C106.125 30.4106 106.452 25.881 107.5 23C108.548 25.881 108.875 30.4106 113 31.7345C109.268 33.3231 108.548 37.1429 107.5 40.0238C106.714 37.5594 105.732 33.3231 102 31.7345Z" stroke="white" stroke-width="1.57143"/>
<path d="M89 51.656C91.6712 50.7988 91.8832 47.8656 92.5615 46C93.2399 47.8656 93.4519 50.7988 96.1231 51.656C93.7063 52.6847 93.2399 55.1582 92.5615 57.0238C92.0527 55.428 91.4168 52.6847 89 51.656Z" stroke="white" stroke-width="1.01758"/>
</svg>
