<svg width="48" height="49" viewBox="0 0 48 49" fill="none" xmlns="http://www.w3.org/2000/svg">
<g clip-path="url(#clip0_346_605)">
<path fill-rule="evenodd" clip-rule="evenodd" d="M48 24.4995C48 37.7543 37.2548 48.4995 24 48.4995C10.7452 48.4995 0 37.7543 0 24.4995C0 11.2447 10.7452 0.499512 24 0.499512C37.2548 0.499512 48 11.2447 48 24.4995ZM24.8601 18.2174C22.5257 19.1883 17.8603 21.1979 10.8638 24.2462C9.72766 24.698 9.13251 25.1399 9.07834 25.5721C8.98677 26.3025 9.90142 26.5901 11.1469 26.9818C11.3164 27.035 11.4919 27.0902 11.6719 27.1487C12.8973 27.5471 14.5457 28.0131 15.4026 28.0316C16.1799 28.0484 17.0475 27.7279 18.0053 27.0702C24.5423 22.6575 27.9168 20.4271 28.1286 20.379C28.2781 20.3451 28.4852 20.3025 28.6255 20.4272C28.7659 20.5519 28.7521 20.7881 28.7372 20.8515C28.6466 21.2378 25.0562 24.5757 23.1982 26.3031C22.619 26.8416 22.2081 27.2235 22.1242 27.3108C21.936 27.5062 21.7443 27.6911 21.56 27.8687C20.4215 28.9662 19.5678 29.7892 21.6072 31.1331C22.5873 31.7789 23.3715 32.313 24.1539 32.8458C25.0084 33.4277 25.8606 34.008 26.9632 34.7308C27.2442 34.915 27.5125 35.1063 27.7738 35.2926C28.7681 36.0015 29.6615 36.6383 30.7652 36.5368C31.4065 36.4778 32.0689 35.8747 32.4053 34.0762C33.2004 29.8258 34.7633 20.6164 35.1244 16.8215C35.1561 16.489 35.1163 16.0635 35.0843 15.8767C35.0523 15.6899 34.9855 15.4237 34.7427 15.2267C34.4552 14.9934 34.0113 14.9442 33.8127 14.9477C32.91 14.9636 31.5251 15.4451 24.8601 18.2174Z" fill="white"/>
</g>
<defs>
<clipPath id="clip0_346_605">
<rect width="48" height="48" fill="white" transform="translate(0 0.499512)"/>
</clipPath>
</defs>
</svg>
