<svg width="48" height="49" viewBox="0 0 48 49" fill="none" xmlns="http://www.w3.org/2000/svg">
<g clip-path="url(#clip0_346_606)">
<path fill-rule="evenodd" clip-rule="evenodd" d="M3.37413 3.87364C0 7.24777 0 12.6783 0 23.5395V25.4595C0 36.3207 0 41.7512 3.37413 45.1254C6.74826 48.4995 12.1788 48.4995 23.04 48.4995H24.96C35.8212 48.4995 41.2517 48.4995 44.6259 45.1254C48 41.7512 48 36.3207 48 25.4595V23.5395C48 12.6783 48 7.24777 44.6259 3.87364C41.2517 0.499512 35.8212 0.499512 24.96 0.499512H23.04C12.1788 0.499512 6.74826 0.499512 3.37413 3.87364ZM8.10012 15.0996C8.36012 27.5796 14.6001 35.0796 25.5401 35.0796H26.1602V27.9396C30.1802 28.3396 33.22 31.2796 34.44 35.0796H40.1201C38.5601 29.3996 34.4599 26.2596 31.8999 25.0596C34.4599 23.5796 38.0599 19.9796 38.9199 15.0996H33.7598C32.6398 19.0596 29.3202 22.6596 26.1602 22.9996V15.0996H21V28.9396C17.8 28.1396 13.7601 24.2596 13.5801 15.0996H8.10012Z" fill="white"/>
</g>
<defs>
<clipPath id="clip0_346_606">
<rect width="48" height="48" fill="white" transform="translate(0 0.499512)"/>
</clipPath>
</defs>
</svg>
